<svg width="16" height="17" viewBox="0 0 16 17" fill="none" xmlns="http://www.w3.org/2000/svg">
<path d="M7.998 5.65935C6.52901 5.65935 5.3302 6.85816 5.3302 8.32715C5.3302 9.79614 6.52901 10.995 7.998 10.995C9.46699 10.995 10.6658 9.79614 10.6658 8.32715C10.6658 6.85816 9.46699 5.65935 7.998 5.65935ZM15.9994 8.32715C15.9994 7.2224 16.0094 6.12766 15.9474 5.02492C15.8853 3.74405 15.5931 2.60728 14.6565 1.67065C13.7179 0.732017 12.5831 0.441821 11.3022 0.379779C10.1975 0.317737 9.10274 0.327744 8 0.327744C6.89525 0.327744 5.80051 0.317737 4.69777 0.379779C3.4169 0.441821 2.28014 0.734018 1.3435 1.67065C0.404868 2.60929 0.114672 3.74405 0.0526304 5.02492C-0.0094115 6.12966 0.000595291 7.2244 0.000595291 8.32715C0.000595291 9.42989 -0.0094115 10.5266 0.0526304 11.6294C0.114672 12.9102 0.40687 14.047 1.3435 14.9836C2.28214 15.9223 3.4169 16.2125 4.69777 16.2745C5.80252 16.3366 6.89725 16.3266 8 16.3266C9.10475 16.3266 10.1995 16.3366 11.3022 16.2745C12.5831 16.2125 13.7199 15.9203 14.6565 14.9836C15.5951 14.045 15.8853 12.9102 15.9474 11.6294C16.0114 10.5266 15.9994 9.43189 15.9994 8.32715ZM7.998 12.4319C5.72646 12.4319 3.89323 10.5987 3.89323 8.32715C3.89323 6.05561 5.72646 4.22237 7.998 4.22237C10.2695 4.22237 12.1028 6.05561 12.1028 8.32715C12.1028 10.5987 10.2695 12.4319 7.998 12.4319ZM12.2709 5.01291C11.7405 5.01291 11.3122 4.58462 11.3122 4.05426C11.3122 3.5239 11.7405 3.09561 12.2709 3.09561C12.8012 3.09561 13.2295 3.5239 13.2295 4.05426C13.2297 4.1802 13.205 4.30493 13.1569 4.42131C13.1088 4.53769 13.0382 4.64343 12.9491 4.73248C12.8601 4.82153 12.7543 4.89214 12.6379 4.94026C12.5216 4.98838 12.3968 5.01307 12.2709 5.01291Z" fill="white"/>
</svg>
