<svg width="16" height="17" viewBox="0 0 16 17" fill="none" xmlns="http://www.w3.org/2000/svg">
<path fill-rule="evenodd" clip-rule="evenodd" d="M13.3333 0.327148C14.0406 0.327148 14.7189 0.6081 15.219 1.1082C15.719 1.60829 16 2.28657 16 2.99382V13.6605C16 14.3677 15.719 15.046 15.219 15.5461C14.7189 16.0462 14.0406 16.3271 13.3333 16.3271H2.66667C1.95942 16.3271 1.28115 16.0462 0.781049 15.5461C0.280952 15.046 0 14.3677 0 13.6605V2.99382C0 2.28657 0.280952 1.60829 0.781049 1.1082C1.28115 0.6081 1.95942 0.327148 2.66667 0.327148H13.3333ZM4.44444 6.54937C4.2087 6.54937 3.9826 6.64302 3.81591 6.80972C3.64921 6.97642 3.55556 7.20251 3.55556 7.43826V11.8827C3.55556 12.1185 3.64921 12.3445 3.81591 12.5112C3.9826 12.6779 4.2087 12.7716 4.44444 12.7716C4.68019 12.7716 4.90628 12.6779 5.07298 12.5112C5.23968 12.3445 5.33333 12.1185 5.33333 11.8827V7.43826C5.33333 7.20251 5.23968 6.97642 5.07298 6.80972C4.90628 6.64302 4.68019 6.54937 4.44444 6.54937ZM7.11111 5.66048C6.87536 5.66048 6.64927 5.75413 6.48257 5.92083C6.31587 6.08753 6.22222 6.31362 6.22222 6.54937V11.8827C6.22222 12.1185 6.31587 12.3445 6.48257 12.5112C6.64927 12.6779 6.87536 12.7716 7.11111 12.7716C7.34686 12.7716 7.57295 12.6779 7.73965 12.5112C7.90635 12.3445 8 12.1185 8 11.8827V8.62937C8.27111 8.32359 8.72889 7.96448 9.23822 7.7467C9.53422 7.62048 9.97956 7.56893 10.2889 7.6667C10.3915 7.69274 10.4829 7.75138 10.5493 7.83381C10.5956 7.89604 10.6667 8.0347 10.6667 8.32715V11.8827C10.6667 12.1185 10.7603 12.3445 10.927 12.5112C11.0937 12.6779 11.3198 12.7716 11.5556 12.7716C11.7913 12.7716 12.0174 12.6779 12.1841 12.5112C12.3508 12.3445 12.4444 12.1185 12.4444 11.8827V8.32715C12.4444 7.73159 12.2933 7.20181 11.9787 6.77693C11.6891 6.39164 11.2839 6.10913 10.8222 5.9707C10.0204 5.71915 9.13244 5.8587 8.53956 6.11293C8.34975 6.19457 8.16484 6.28717 7.98578 6.39026C7.94852 6.18545 7.84055 6.00021 7.68071 5.86685C7.52086 5.73348 7.31928 5.66045 7.11111 5.66048ZM4.44444 3.8827C4.2087 3.8827 3.9826 3.97635 3.81591 4.14305C3.64921 4.30975 3.55556 4.53584 3.55556 4.77159C3.55556 5.00734 3.64921 5.23343 3.81591 5.40013C3.9826 5.56683 4.2087 5.66048 4.44444 5.66048C4.68019 5.66048 4.90628 5.56683 5.07298 5.40013C5.23968 5.23343 5.33333 5.00734 5.33333 4.77159C5.33333 4.53584 5.23968 4.30975 5.07298 4.14305C4.90628 3.97635 4.68019 3.8827 4.44444 3.8827Z" fill="white"/>
</svg>
