<svg width="41" height="41" viewBox="0 0 41 41" fill="none" xmlns="http://www.w3.org/2000/svg">
<rect x="0.5" y="0.730347" width="40" height="40" rx="8" fill="#DCE4E4"/>
<g clip-path="url(#clip0_1168_16583)">
<mask id="mask0_1168_16583" style="mask-type:luminance" maskUnits="userSpaceOnUse" x="8" y="8" width="25" height="25">
<path d="M32.5 8.73035H8.5V32.7303H32.5V8.73035Z" fill="white"/>
</mask>
<g mask="url(#mask0_1168_16583)">
<path d="M28.36 16.8199C28.36 17.2399 28.33 17.6499 28.28 18.0399C27.82 17.8399 27.32 17.7299 26.79 17.7299C25.57 17.7299 24.49 18.3199 23.82 19.2199C23.14 18.3199 22.06 17.7299 20.84 17.7299C18.79 17.7299 17.13 19.3999 17.13 21.4699C17.13 24.1499 18.55 26.1999 20.13 27.5899C20.08 27.6199 20.03 27.6299 19.98 27.6499C19.68 27.7599 19.18 27.7599 18.88 27.6499C16.29 26.7599 10.5 23.0799 10.5 16.8199C10.5 14.0599 12.72 11.83 15.46 11.83C17.09 11.83 18.53 12.6099 19.43 13.8199C20.34 12.6099 21.78 11.83 23.4 11.83C26.14 11.83 28.36 14.0599 28.36 16.8199Z" stroke="#0099E5" stroke-width="1.5" stroke-linecap="round" stroke-linejoin="round"/>
<path d="M30.4989 21.4703C30.4989 26.1503 26.1689 28.9103 24.2289 29.5703C23.9989 29.6503 23.6289 29.6503 23.3989 29.5703C22.5689 29.2903 21.2989 28.6203 20.1289 27.5903C18.5489 26.2003 17.1289 24.1503 17.1289 21.4703C17.1289 19.4003 18.7889 17.7303 20.8389 17.7303C22.0589 17.7303 23.1389 18.3203 23.8189 19.2203C24.4889 18.3203 25.5689 17.7303 26.7889 17.7303C27.3189 17.7303 27.8189 17.8403 28.2789 18.0403C29.5889 18.6203 30.4989 19.9303 30.4989 21.4703Z" stroke="#0099E5" stroke-width="1.5" stroke-linecap="round" stroke-linejoin="round"/>
</g>
</g>
<defs>
<clipPath id="clip0_1168_16583">
<rect width="24" height="24" fill="white" transform="translate(8.5 8.73035)"/>
</clipPath>
</defs>
</svg>
