<svg width="41" height="41" viewBox="0 0 41 41" fill="none" xmlns="http://www.w3.org/2000/svg">
<rect x="0.5" y="0.730347" width="40" height="40" rx="8" fill="#DCE4E4"/>
<g clip-path="url(#clip0_1168_16596)">
<mask id="mask0_1168_16596" style="mask-type:luminance" maskUnits="userSpaceOnUse" x="8" y="8" width="25" height="25">
<path d="M32.5 8.73035H8.5V32.7303H32.5V8.73035Z" fill="white"/>
</mask>
<g mask="url(#mask0_1168_16596)">
<path d="M20.4984 31.4895C19.4084 31.4895 18.3285 31.1695 17.4785 30.5395L13.1784 27.3295C12.0384 26.4795 11.1484 24.7095 11.1484 23.2895V15.8596C11.1484 14.3196 12.2785 12.6796 13.7285 12.1396L18.7184 10.2696C19.7084 9.89957 21.2684 9.89957 22.2584 10.2696L27.2584 12.1396C28.7084 12.6796 29.8384 14.3196 29.8384 15.8596V23.2895C29.8384 24.7095 28.9484 26.4795 27.8084 27.3295L23.5084 30.5395C22.6684 31.1695 21.5884 31.4895 20.4984 31.4895ZM19.2484 11.6696L14.2585 13.5396C13.3985 13.8596 12.6484 14.9396 12.6484 15.8596V23.2895C12.6484 24.2395 13.3185 25.5695 14.0685 26.1295L18.3684 29.3395C19.5184 30.1995 21.4684 30.1995 22.6184 29.3395L26.9184 26.1295C27.6784 25.5595 28.3384 24.2295 28.3384 23.2895V15.8596C28.3384 14.9496 27.5884 13.8696 26.7284 13.5396L21.7384 11.6696C21.0784 11.4196 19.9184 11.4196 19.2484 11.6696Z" fill="#0099E5"/>
<path d="M20.4979 20.4005C20.4779 20.4005 20.4579 20.4005 20.4279 20.4005C18.9779 20.3605 17.918 19.2505 17.918 17.9005C17.918 16.5205 19.0479 15.3905 20.4279 15.3905C21.8079 15.3905 22.9379 16.5205 22.9379 17.9005C22.9279 19.2605 21.8679 20.3604 20.5179 20.4104C20.5079 20.4004 20.5079 20.4005 20.4979 20.4005ZM20.4279 16.8905C19.8679 16.8905 19.4179 17.3405 19.4179 17.9005C19.4179 18.4505 19.8479 18.8904 20.3879 18.9104C20.3879 18.9104 20.4379 18.9104 20.4979 18.9104C21.0279 18.8804 21.4379 18.4405 21.4379 17.9005C21.4479 17.3405 20.9879 16.8905 20.4279 16.8905Z" fill="#0099E5"/>
<path d="M20.4969 26.0812C19.6369 26.0812 18.7669 25.8512 18.0969 25.4012C17.4269 24.9612 17.0469 24.3113 17.0469 23.6213C17.0469 22.9313 17.4269 22.2812 18.0969 21.8312C19.4469 20.9312 21.5569 20.9412 22.8969 21.8312C23.5669 22.2712 23.9469 22.9212 23.9469 23.6112C23.9469 24.3012 23.5669 24.9512 22.8969 25.4012C22.2269 25.8512 21.3569 26.0812 20.4969 26.0812ZM18.9269 23.0712C18.6769 23.2312 18.5369 23.4312 18.5469 23.6112C18.5469 23.7912 18.6869 23.9912 18.9269 24.1512C19.7669 24.7112 21.2269 24.7112 22.0669 24.1512C22.3169 23.9912 22.4569 23.7912 22.4569 23.6112C22.4569 23.4312 22.3169 23.2312 22.0769 23.0712C21.2369 22.5212 19.7669 22.5212 18.9269 23.0712Z" fill="#0099E5"/>
</g>
</g>
<defs>
<clipPath id="clip0_1168_16596">
<rect width="24" height="24" fill="white" transform="translate(8.5 8.73035)"/>
</clipPath>
</defs>
</svg>
